# xmcd CD database file
#
# Track frame offsets:
#	150
#	17725
#	35711
#	53553
#	74240
#	90612
#	107576
#	126009
#	143146
#	160235
#
# Disc length: 2414 seconds
#
# Revision: 3
# Processed by: cddbd v1.5.2PL0 Copyright (c) Steve Scherf et al.
# Submitted via: CDex 1.51
#
DISCID=88096c0a
DTITLE=Mustafa Sandal - Isyankar
DYEAR=2004
DGENRE=Pop
TTITLE0=Isyankar
TTITLE1=Kavrulduk
TTITLE2=Gel Askim
TTITLE3=Fikra
TTITLE4=All My Life (Remix)
TTITLE5=Isyankar (Oryantal Remix)
TTITLE6=Gel Askim (Remix)
TTITLE7=Story
TTITLE8=All My Life
TTITLE9=Ozetle
EXTD=Mustafa Sandal Isyankar YEAR: 2004
EXTT0=
EXTT1=
EXTT2=
EXTT3=
EXTT4=
EXTT5=
EXTT6=
EXTT7=
EXTT8=
EXTT9=
PLAYORDER=
